<?xml version="1.0" encoding="utf-8"?>
<!-- Generator: Adobe Illustrator 25.4.1, SVG Export Plug-In . SVG Version: 6.00 Build 0)  -->
<svg version="1.1" id="Layer_1" xmlns="http://www.w3.org/2000/svg" xmlns:xlink="http://www.w3.org/1999/xlink" x="0px" y="0px"
	 viewBox="0 0 131.2 115.3" enable-background="new 0 0 131.2 115.3" xml:space="preserve">
<g>
	<g>
		<defs>
			<rect id="SVGID_1_" x="36.9" width="51.7" height="51.7"/>
		</defs>
		<clipPath id="SVGID_00000178905910448743646430000017172259034089129113_">
			<use xlink:href="#SVGID_1_"  overflow="visible"/>
		</clipPath>
		<g clip-path="url(#SVGID_00000178905910448743646430000017172259034089129113_)">
			<g>
				<defs>
					
						<rect id="SVGID_00000067213896888200486710000003279785608628875190_" x="5.1" y="9.8" transform="matrix(0.7071 -0.7071 0.7071 0.7071 -21.7993 59.3869)" width="111.4" height="92.5"/>
				</defs>
				<clipPath id="SVGID_00000023978681467823814100000004627597564509564851_">
					<use xlink:href="#SVGID_00000067213896888200486710000003279785608628875190_"  overflow="visible"/>
				</clipPath>
				<g clip-path="url(#SVGID_00000023978681467823814100000004627597564509564851_)">
					<g>
						<defs>
							
								<rect id="SVGID_00000142889368387934562020000018102607621330234037_" x="5.3" y="9.5" transform="matrix(0.7071 -0.7071 0.7071 0.7071 -21.8862 59.5966)" width="111.4" height="93.5"/>
						</defs>
						<clipPath id="SVGID_00000105417608205129900480000002294304827347920521_">
							<use xlink:href="#SVGID_00000142889368387934562020000018102607621330234037_"  overflow="visible"/>
						</clipPath>
						<g clip-path="url(#SVGID_00000105417608205129900480000002294304827347920521_)">
							<path fill="#F9BC50" d="M44.7,7.8C34.7,17.8,34.8,34,44.8,44c4,4,9,6.4,14.3,7.2l4.5-4.5c-1.3-0.3-2.6-0.9-3.6-1.9
								c-2.7-2.7-2.8-7.2,0-9.9c2.7-2.7,7.1-2.7,9.9,0c1,1,1.7,2.3,1.9,3.6l3.6-3.6C74,34.7,72.7,34,71.7,33c-2.7-2.7-2.8-7.2,0-9.9
								c2.7-2.7,7.1-2.7,9.9,0c2.7,2.7,2.8,7.2,0,9.9c-0.8,0.8-1.8,1.4-2.9,1.7l5.4,5.4c6.6-9.9,5.5-23.4-3.3-32.2
								C70.7-2,54.6-2.1,44.7,7.8z M55.6,37.5c-2.7,2.7-7.1,2.7-9.9,0c-2.7-2.7-2.8-7.2,0-9.9c2.7-2.7,7.1-2.7,9.9,0
								C58.3,30.3,58.3,34.8,55.6,37.5z M57.8,21c-2.7,2.7-7.1,2.7-9.9,0c-2.7-2.7-2.8-7.2,0-9.9c2.7-2.7,7.1-2.7,9.9,0
								C60.5,13.9,60.5,18.3,57.8,21z M74.3,18.8c-2.7,2.7-7.1,2.7-9.9,0c-2.7-2.7-2.8-7.2,0-9.9c2.7-2.7,7.1-2.7,9.9,0
								C77,11.6,77,16.1,74.3,18.8z"/>
						</g>
					</g>
				</g>
			</g>
		</g>
	</g>
	<g>
		<defs>
			<rect id="SVGID_00000085945472096336079720000012699970661711577255_" x="-0.2" y="37.1" width="51.7" height="51.7"/>
		</defs>
		<clipPath id="SVGID_00000045577804879529434930000016676489548641456558_">
			<use xlink:href="#SVGID_00000085945472096336079720000012699970661711577255_"  overflow="visible"/>
		</clipPath>
		<g clip-path="url(#SVGID_00000045577804879529434930000016676489548641456558_)">
			<g>
				<defs>
					
						<rect id="SVGID_00000037672882810296572310000017260322051908398213_" x="5.1" y="9.8" transform="matrix(0.7071 -0.7071 0.7071 0.7071 -21.7993 59.3869)" width="111.4" height="92.5"/>
				</defs>
				<clipPath id="SVGID_00000150067865017004188060000008207520552795765126_">
					<use xlink:href="#SVGID_00000037672882810296572310000017260322051908398213_"  overflow="visible"/>
				</clipPath>
				<g clip-path="url(#SVGID_00000150067865017004188060000008207520552795765126_)">
					<g>
						<defs>
							
								<rect id="SVGID_00000079461843665198645230000011840279285785123000_" x="5.3" y="9.5" transform="matrix(0.7071 -0.7071 0.7071 0.7071 -21.8862 59.5966)" width="111.4" height="93.5"/>
						</defs>
						<clipPath id="SVGID_00000034810220744071382350000009988316603820133511_">
							<use xlink:href="#SVGID_00000079461843665198645230000011840279285785123000_"  overflow="visible"/>
						</clipPath>
						<g clip-path="url(#SVGID_00000034810220744071382350000009988316603820133511_)">
							<path fill="#F9BC50" d="M7.4,44.5c-9.9,9.9-9.9,26.1,0.1,36.1c7.5,7.5,18.5,9.4,27.7,5.7l-3.9-3.9c-2.7,1.7-6.4,1.4-8.7-1
								c-2.7-2.7-2.8-7.2,0-9.9s7.1-2.7,9.9,0c1.2,1.2,1.8,2.6,2,4.1l4-4c-1.5-0.2-3-0.8-4.1-2c-2.7-2.7-2.8-7.2,0-9.9
								c2.7-2.7,7.1-2.7,9.9,0c1.2,1.2,1.8,2.6,2,4.1l4.6-4.6c-0.7-5.4-3.1-10.6-7.3-14.8C33.5,34.7,17.3,34.6,7.4,44.5z M18.3,74.2
								c-2.7,2.7-7.1,2.7-9.9,0c-2.7-2.7-2.8-7.2,0-9.9c2.7-2.7,7.1-2.7,9.9,0C21,67,21,71.4,18.3,74.2z M20.5,57.7
								c-2.7,2.7-7.1,2.7-9.9,0c-2.7-2.7-2.8-7.2,0-9.9c2.7-2.7,7.1-2.7,9.9,0C23.2,50.5,23.2,55,20.5,57.7z M37,45.6
								c2.7,2.7,2.8,7.2,0,9.9c-2.7,2.7-7.1,2.7-9.9,0c-2.7-2.7-2.8-7.2,0-9.9C29.8,42.8,34.2,42.8,37,45.6z"/>
						</g>
					</g>
				</g>
			</g>
		</g>
	</g>
	<g>
		<defs>
			<rect id="SVGID_00000065769655688411146110000000018658413914879899_" x="31.6" y="18.6" width="100.8" height="96.8"/>
		</defs>
		<clipPath id="SVGID_00000088096041740009059770000011143429705880043150_">
			<use xlink:href="#SVGID_00000065769655688411146110000000018658413914879899_"  overflow="visible"/>
		</clipPath>
		<g clip-path="url(#SVGID_00000088096041740009059770000011143429705880043150_)">
			<g>
				<defs>
					
						<rect id="SVGID_00000168835939636599759660000017498753364179457457_" x="5.1" y="9.8" transform="matrix(0.7071 -0.7071 0.7071 0.7071 -21.7993 59.3869)" width="111.4" height="92.5"/>
				</defs>
				<clipPath id="SVGID_00000163038325445269812530000012271375387177680292_">
					<use xlink:href="#SVGID_00000168835939636599759660000017498753364179457457_"  overflow="visible"/>
				</clipPath>
				<g clip-path="url(#SVGID_00000163038325445269812530000012271375387177680292_)">
					<g>
						<defs>
							
								<rect id="SVGID_00000155865729205470877460000008789979361255495096_" x="5.3" y="9.5" transform="matrix(0.7071 -0.7071 0.7071 0.7071 -21.8862 59.5966)" width="111.4" height="93.5"/>
						</defs>
						<clipPath id="SVGID_00000088831936456548441920000010393917245580014480_">
							<use xlink:href="#SVGID_00000155865729205470877460000008789979361255495096_"  overflow="visible"/>
						</clipPath>
						<g clip-path="url(#SVGID_00000088831936456548441920000010393917245580014480_)">
							<path fill="#611427" d="M87.9,47.3L77,36.4L32.7,80.7l34.6,34.6l44.3-44.3l-8.9-8.9L131,48.4l-29.6-29.6L87.9,47.3z"/>
						</g>
					</g>
				</g>
			</g>
		</g>
	</g>
	<g>
		<defs>
			<rect id="SVGID_00000011710982752666481690000018239110032771634088_" x="43.5" y="46.4" width="58.3" height="58.3"/>
		</defs>
		<clipPath id="SVGID_00000165213680982158911870000016306887625564573598_">
			<use xlink:href="#SVGID_00000011710982752666481690000018239110032771634088_"  overflow="visible"/>
		</clipPath>
		<g clip-path="url(#SVGID_00000165213680982158911870000016306887625564573598_)">
			<g>
				<defs>
					
						<rect id="SVGID_00000026848160664823818660000010507780193184894397_" x="5.1" y="9.8" transform="matrix(0.7071 -0.7071 0.7071 0.7071 -21.7993 59.3869)" width="111.4" height="92.5"/>
				</defs>
				<clipPath id="SVGID_00000183220659096614213310000002454052749002089351_">
					<use xlink:href="#SVGID_00000026848160664823818660000010507780193184894397_"  overflow="visible"/>
				</clipPath>
				<g clip-path="url(#SVGID_00000183220659096614213310000002454052749002089351_)">
					<g>
						<defs>
							
								<rect id="SVGID_00000171687133856480706150000002769455402247440775_" x="5.3" y="9.5" transform="matrix(0.7071 -0.7071 0.7071 0.7071 -21.8862 59.5966)" width="111.4" height="93.5"/>
						</defs>
						<clipPath id="SVGID_00000034080176065926507180000002162149299100857484_">
							<use xlink:href="#SVGID_00000171687133856480706150000002769455402247440775_"  overflow="visible"/>
						</clipPath>
						<g clip-path="url(#SVGID_00000034080176065926507180000002162149299100857484_)">
							<path fill="#F9BC50" d="M100.6,71l-33.2,33.2L44,80.9l33.2-33.2L100.6,71L100.6,71z M67.3,101.1L97.4,71L77.2,50.9L47.2,80.9
								L67.3,101.1z"/>
						</g>
					</g>
				</g>
			</g>
		</g>
	</g>
	<g>
		<g>
			<g>
				<defs>
					
						<rect id="SVGID_00000075129367839866341500000017106905065221443252_" x="5.1" y="9.8" transform="matrix(0.7071 -0.7071 0.7071 0.7071 -21.7993 59.3869)" width="111.4" height="92.5"/>
				</defs>
				<clipPath id="SVGID_00000006687220923529267180000011281019138467377549_">
					<use xlink:href="#SVGID_00000075129367839866341500000017106905065221443252_"  overflow="visible"/>
				</clipPath>
				<g clip-path="url(#SVGID_00000006687220923529267180000011281019138467377549_)">
					<g>
						<defs>
							
								<rect id="SVGID_00000044153377330475256300000006899706296558331543_" x="5.3" y="9.5" transform="matrix(0.7071 -0.7071 0.7071 0.7071 -21.8862 59.5966)" width="111.4" height="93.5"/>
						</defs>
						<clipPath id="SVGID_00000078037314166682558960000002309381841238745742_">
							<use xlink:href="#SVGID_00000044153377330475256300000006899706296558331543_"  overflow="visible"/>
						</clipPath>
						<g clip-path="url(#SVGID_00000078037314166682558960000002309381841238745742_)">
							<path fill="#F9BC50" d="M98.7,24.4l26.7,26.7l2.3-1.1L99.8,22.1L98.7,24.4z"/>
						</g>
					</g>
				</g>
			</g>
		</g>
	</g>
</g>
</svg>
