<?xml version="1.0" encoding="utf-8"?>
<!-- Generator: Adobe Illustrator 25.4.1, SVG Export Plug-In . SVG Version: 6.00 Build 0)  -->
<svg version="1.1" id="Layer_1" xmlns="http://www.w3.org/2000/svg" xmlns:xlink="http://www.w3.org/1999/xlink" x="0px" y="0px"
	 viewBox="0 0 131.2 115.3" enable-background="new 0 0 131.2 115.3" xml:space="preserve">
<g>
	<path fill="#F9BC50" d="M368.1,80.5c-4.3-13.6-18.8-21.2-32.4-16.9C322,67.8,314.5,82.4,318.7,96c4.3,13.6,18.8,21.2,32.4,16.9
		C364.8,108.6,372.3,94.1,368.1,80.5z M328.3,73.5c2.6-2.7,6.8-2.7,9.5-0.1c2.7,2.6,2.7,6.8,0.1,9.5c-2.6,2.7-6.8,2.7-9.5,0.1
		C325.7,80.4,325.7,76.1,328.3,73.5z M333.5,100.7c-3.3,1.7-7.4,0.3-9-3c-1.7-3.3-0.3-7.4,3-9c3.3-1.7,7.4-0.3,9,3
		C338.2,95,336.8,99,333.5,100.7z M343.8,72.3c1.6-3.3,5.7-4.7,9-3c3.3,1.6,4.7,5.7,3.1,9c-1.6,3.3-5.7,4.7-9,3.1
		C343.5,79.7,342.1,75.7,343.8,72.3z M346.4,109.2c-3.7,0.5-7.1-2-7.6-5.7c-0.5-3.7,2-7.1,5.7-7.6c3.7-0.5,7.1,2,7.6,5.7
		C352.6,105.2,350.1,108.6,346.4,109.2z M356.5,97.3c-3.7-0.6-6.1-4.1-5.5-7.8c0.6-3.7,4.1-6.1,7.8-5.5c3.7,0.6,6.1,4.1,5.5,7.8
		C363.6,95.5,360.1,98,356.5,97.3z"/>
	<path fill="#F9BC50" d="M405.2,43.4c-4.3-13.6-18.8-21.2-32.4-16.9c-13.6,4.3-21.2,18.8-16.9,32.4c4.3,13.6,18.8,21.2,32.4,16.9
		C401.9,71.5,409.5,57,405.2,43.4z M365.4,36.3c2.6-2.7,6.8-2.7,9.5-0.1c2.7,2.6,2.7,6.8,0.1,9.5c-2.6,2.7-6.8,2.7-9.5,0.1
		C362.9,43.3,362.8,39,365.4,36.3z M370.6,63.6c-3.3,1.7-7.4,0.3-9-3c-1.7-3.3-0.3-7.4,3-9c3.3-1.7,7.4-0.3,9,3
		C375.3,57.9,373.9,61.9,370.6,63.6z M380.9,35.2c1.6-3.3,5.7-4.7,9-3c3.3,1.6,4.7,5.7,3.1,9c-1.6,3.3-5.7,4.7-9,3.1
		C380.6,42.6,379.2,38.5,380.9,35.2z M383.5,72c-3.7,0.5-7.1-2-7.6-5.7c-0.5-3.7,2-7.1,5.7-7.6c3.7-0.5,7.1,2,7.6,5.7
		C389.7,68.1,387.2,71.5,383.5,72z M393.6,60.2c-3.7-0.6-6.1-4.1-5.5-7.8c0.6-3.7,4.1-6.1,7.8-5.5c3.7,0.6,6.1,4.1,5.5,7.8
		C400.7,58.4,397.2,60.8,393.6,60.2z"/>
</g>
<polygon fill="#383838" points="418.6,40.6 417.4,43.1 405.1,69.1 396.2,60.2 394.8,58.8 393.4,60.2 349.1,104.5 347.7,105.9 
	349.1,107.3 383.7,141.9 385.1,143.3 386.5,141.9 430.8,97.6 432.2,96.2 430.8,94.8 423.9,87.9 449.7,75.4 452.2,74.2 450.2,72.2 
	420.6,42.6 418.6,40.6 "/>
<g>
	<path fill="#F9BC50" d="M196.5-10.1c-4.3-13.6-18.8-21.2-32.4-16.9c-13.6,4.3-21.2,18.8-16.9,32.4c4.3,13.6,18.8,21.2,32.4,16.9
		C193.2,18,200.8,3.5,196.5-10.1z M156.7-17.1c2.6-2.7,6.8-2.7,9.5-0.1c2.7,2.6,2.7,6.8,0.1,9.5c-2.6,2.7-6.8,2.7-9.5,0.1
		C154.2-10.2,154.2-14.5,156.7-17.1z M162,10.1c-3.3,1.7-7.4,0.3-9-3c-1.7-3.3-0.3-7.4,3-9c3.3-1.7,7.4-0.3,9,3
		C166.6,4.4,165.3,8.4,162,10.1z M172.2-18.3c1.6-3.3,5.7-4.7,9-3c3.3,1.6,4.7,5.7,3.1,9c-1.6,3.3-5.7,4.7-9,3.1
		C172-10.9,170.6-14.9,172.2-18.3z M174.9,18.6c-3.7,0.5-7.1-2-7.6-5.7c-0.5-3.7,2-7.1,5.7-7.6c3.7-0.5,7.1,2,7.6,5.7
		C181.1,14.6,178.5,18,174.9,18.6z M184.9,6.7c-3.7-0.6-6.1-4.1-5.5-7.8c0.6-3.7,4.1-6.1,7.8-5.5c3.7,0.6,6.1,4.1,5.5,7.8
		C192.1,4.9,188.6,7.4,184.9,6.7z"/>
	<path fill="#F9BC50" d="M233.7-47.2c-4.3-13.6-18.8-21.2-32.4-16.9c-13.6,4.3-21.2,18.8-16.9,32.4c4.3,13.6,18.8,21.2,32.4,16.9
		C230.4-19.1,237.9-33.6,233.7-47.2z M193.9-54.2c2.6-2.7,6.8-2.7,9.5-0.1c2.7,2.6,2.7,6.8,0.1,9.5c-2.6,2.7-6.8,2.7-9.5,0.1
		C191.3-47.3,191.3-51.6,193.9-54.2z M199.1-27c-3.3,1.7-7.4,0.3-9-3c-1.7-3.3-0.3-7.4,3-9c3.3-1.7,7.4-0.3,9,3
		C203.8-32.7,202.4-28.7,199.1-27z M209.4-55.4c1.6-3.3,5.7-4.7,9-3c3.3,1.6,4.7,5.7,3.1,9c-1.6,3.3-5.7,4.7-9,3.1
		C209.1-48,207.7-52.1,209.4-55.4z M212-18.6c-3.7,0.5-7.1-2-7.6-5.7c-0.5-3.7,2-7.1,5.7-7.6c3.7-0.5,7.1,2,7.6,5.7
		C218.2-22.5,215.7-19.1,212-18.6z M222.1-30.4c-3.7-0.6-6.1-4.1-5.5-7.8c0.6-3.7,4.1-6.1,7.8-5.5c3.7,0.6,6.1,4.1,5.5,7.8
		C229.2-32.2,225.7-29.8,222.1-30.4z"/>
</g>
<g>
	<g>
		<defs>
			<rect id="SVGID_1_" x="36.9" width="51.7" height="51.7"/>
		</defs>
		<clipPath id="SVGID_00000073697610089104756520000010062460529749444509_">
			<use xlink:href="#SVGID_1_"  overflow="visible"/>
		</clipPath>
		<g clip-path="url(#SVGID_00000073697610089104756520000010062460529749444509_)">
			<g>
				<defs>
					
						<rect id="SVGID_00000082351304620668951170000002120005691279160215_" x="5.1" y="9.8" transform="matrix(0.7071 -0.7071 0.7071 0.7071 -21.7993 59.3869)" width="111.4" height="92.5"/>
				</defs>
				<clipPath id="SVGID_00000145026337562155888830000001019781605776351647_">
					<use xlink:href="#SVGID_00000082351304620668951170000002120005691279160215_"  overflow="visible"/>
				</clipPath>
				<g clip-path="url(#SVGID_00000145026337562155888830000001019781605776351647_)">
					<g>
						<defs>
							
								<rect id="SVGID_00000181088612115010045230000008859266839127529640_" x="5.3" y="9.5" transform="matrix(0.7071 -0.7071 0.7071 0.7071 -21.8862 59.5966)" width="111.4" height="93.5"/>
						</defs>
						<clipPath id="SVGID_00000163062433359044883660000009535596094420979625_">
							<use xlink:href="#SVGID_00000181088612115010045230000008859266839127529640_"  overflow="visible"/>
						</clipPath>
						<g clip-path="url(#SVGID_00000163062433359044883660000009535596094420979625_)">
							<path fill="#F9BC50" d="M44.7,7.8C34.7,17.8,34.8,34,44.8,44c4,4,9,6.4,14.3,7.2l4.5-4.5c-1.3-0.3-2.6-0.9-3.6-1.9
								c-2.7-2.7-2.8-7.2,0-9.9c2.7-2.7,7.1-2.7,9.9,0c1,1,1.7,2.3,1.9,3.6l3.6-3.6C74,34.7,72.7,34,71.7,33c-2.7-2.7-2.8-7.2,0-9.9
								c2.7-2.7,7.1-2.7,9.9,0c2.7,2.7,2.8,7.2,0,9.9c-0.8,0.8-1.8,1.4-2.9,1.7l5.4,5.4c6.6-9.9,5.5-23.4-3.3-32.2
								C70.7-2,54.6-2.1,44.7,7.8z M55.6,37.5c-2.7,2.7-7.1,2.7-9.9,0c-2.7-2.7-2.8-7.2,0-9.9c2.7-2.7,7.1-2.7,9.9,0
								C58.3,30.3,58.3,34.8,55.6,37.5z M57.8,21c-2.7,2.7-7.1,2.7-9.9,0c-2.7-2.7-2.8-7.2,0-9.9c2.7-2.7,7.1-2.7,9.9,0
								C60.5,13.9,60.5,18.3,57.8,21z M74.3,18.8c-2.7,2.7-7.1,2.7-9.9,0c-2.7-2.7-2.8-7.2,0-9.9c2.7-2.7,7.1-2.7,9.9,0
								C77,11.6,77,16.1,74.3,18.8z"/>
						</g>
					</g>
				</g>
			</g>
		</g>
	</g>
	<g>
		<defs>
			<rect id="SVGID_00000133486698523762140890000014993541324404027573_" x="-0.2" y="37.1" width="51.7" height="51.7"/>
		</defs>
		<clipPath id="SVGID_00000146469082991419090950000006629619581917061007_">
			<use xlink:href="#SVGID_00000133486698523762140890000014993541324404027573_"  overflow="visible"/>
		</clipPath>
		<g clip-path="url(#SVGID_00000146469082991419090950000006629619581917061007_)">
			<g>
				<defs>
					
						<rect id="SVGID_00000051379298941617417990000012246137978258111669_" x="5.1" y="9.8" transform="matrix(0.7071 -0.7071 0.7071 0.7071 -21.7993 59.3869)" width="111.4" height="92.5"/>
				</defs>
				<clipPath id="SVGID_00000008108788954829003120000009444395798426256777_">
					<use xlink:href="#SVGID_00000051379298941617417990000012246137978258111669_"  overflow="visible"/>
				</clipPath>
				<g clip-path="url(#SVGID_00000008108788954829003120000009444395798426256777_)">
					<g>
						<defs>
							
								<rect id="SVGID_00000164473297881380472100000003706667475250667909_" x="5.3" y="9.5" transform="matrix(0.7071 -0.7071 0.7071 0.7071 -21.8862 59.5966)" width="111.4" height="93.5"/>
						</defs>
						<clipPath id="SVGID_00000151507569783508836100000003389158755062949299_">
							<use xlink:href="#SVGID_00000164473297881380472100000003706667475250667909_"  overflow="visible"/>
						</clipPath>
						<g clip-path="url(#SVGID_00000151507569783508836100000003389158755062949299_)">
							<path fill="#F9BC50" d="M7.4,44.5c-9.9,9.9-9.9,26.1,0.1,36.1c7.5,7.5,18.5,9.4,27.7,5.7l-3.9-3.9c-2.7,1.7-6.4,1.4-8.7-1
								c-2.7-2.7-2.8-7.2,0-9.9s7.1-2.7,9.9,0c1.2,1.2,1.8,2.6,2,4.1l4-4c-1.5-0.2-3-0.8-4.1-2c-2.7-2.7-2.8-7.2,0-9.9
								c2.7-2.7,7.1-2.7,9.9,0c1.2,1.2,1.8,2.6,2,4.1l4.6-4.6c-0.7-5.4-3.1-10.6-7.3-14.8C33.5,34.7,17.3,34.6,7.4,44.5z M18.3,74.2
								c-2.7,2.7-7.1,2.7-9.9,0c-2.7-2.7-2.8-7.2,0-9.9c2.7-2.7,7.1-2.7,9.9,0C21,67,21,71.4,18.3,74.2z M20.5,57.7
								c-2.7,2.7-7.1,2.7-9.9,0c-2.7-2.7-2.8-7.2,0-9.9c2.7-2.7,7.1-2.7,9.9,0C23.2,50.5,23.2,55,20.5,57.7z M37,45.6
								c2.7,2.7,2.8,7.2,0,9.9c-2.7,2.7-7.1,2.7-9.9,0c-2.7-2.7-2.8-7.2,0-9.9C29.8,42.8,34.2,42.8,37,45.6z"/>
						</g>
					</g>
				</g>
			</g>
		</g>
	</g>
	<g>
		<defs>
			<rect id="SVGID_00000060715700267292550670000016000408863248625031_" x="31.6" y="18.6" width="100.8" height="96.8"/>
		</defs>
		<clipPath id="SVGID_00000062908269224224821170000001295950125501407931_">
			<use xlink:href="#SVGID_00000060715700267292550670000016000408863248625031_"  overflow="visible"/>
		</clipPath>
		<g clip-path="url(#SVGID_00000062908269224224821170000001295950125501407931_)">
			<g>
				<defs>
					
						<rect id="SVGID_00000064336994165091362030000007308072757037713545_" x="5.1" y="9.8" transform="matrix(0.7071 -0.7071 0.7071 0.7071 -21.7993 59.3869)" width="111.4" height="92.5"/>
				</defs>
				<clipPath id="SVGID_00000106120890458299409820000008150195049028601524_">
					<use xlink:href="#SVGID_00000064336994165091362030000007308072757037713545_"  overflow="visible"/>
				</clipPath>
				<g clip-path="url(#SVGID_00000106120890458299409820000008150195049028601524_)">
					<g>
						<defs>
							
								<rect id="SVGID_00000051361045910357728670000016165854855347421349_" x="5.3" y="9.5" transform="matrix(0.7071 -0.7071 0.7071 0.7071 -21.8862 59.5966)" width="111.4" height="93.5"/>
						</defs>
						<clipPath id="SVGID_00000079449739884311994390000008113334434773036160_">
							<use xlink:href="#SVGID_00000051361045910357728670000016165854855347421349_"  overflow="visible"/>
						</clipPath>
						<g clip-path="url(#SVGID_00000079449739884311994390000008113334434773036160_)">
							<path fill="#611427" d="M87.9,47.3L77,36.4L32.7,80.7l34.6,34.6l44.3-44.3l-8.9-8.9L131,48.4l-29.6-29.6L87.9,47.3z"/>
						</g>
					</g>
				</g>
			</g>
		</g>
	</g>
	<g>
		<defs>
			<rect id="SVGID_00000119081696941319923550000013075029612954539418_" x="43.5" y="46.4" width="58.3" height="58.3"/>
		</defs>
		<clipPath id="SVGID_00000145037585134748444150000005376997979395335572_">
			<use xlink:href="#SVGID_00000119081696941319923550000013075029612954539418_"  overflow="visible"/>
		</clipPath>
		<g clip-path="url(#SVGID_00000145037585134748444150000005376997979395335572_)">
			<g>
				<defs>
					
						<rect id="SVGID_00000023962230592951805740000014201687643102017408_" x="5.1" y="9.8" transform="matrix(0.7071 -0.7071 0.7071 0.7071 -21.7993 59.3869)" width="111.4" height="92.5"/>
				</defs>
				<clipPath id="SVGID_00000042731234515890316710000000833748683959922610_">
					<use xlink:href="#SVGID_00000023962230592951805740000014201687643102017408_"  overflow="visible"/>
				</clipPath>
				<g clip-path="url(#SVGID_00000042731234515890316710000000833748683959922610_)">
					<g>
						<defs>
							
								<rect id="SVGID_00000031166805999898454000000015663449789502818440_" x="5.3" y="9.5" transform="matrix(0.7071 -0.7071 0.7071 0.7071 -21.8862 59.5966)" width="111.4" height="93.5"/>
						</defs>
						<clipPath id="SVGID_00000078006815383209030520000016967837866953757870_">
							<use xlink:href="#SVGID_00000031166805999898454000000015663449789502818440_"  overflow="visible"/>
						</clipPath>
						<g clip-path="url(#SVGID_00000078006815383209030520000016967837866953757870_)">
							<path fill="#F9BC50" d="M100.6,71l-33.2,33.2L44,80.9l33.2-33.2L100.6,71L100.6,71z M67.3,101.1L97.4,71L77.2,50.9L47.2,80.9
								L67.3,101.1z"/>
						</g>
					</g>
				</g>
			</g>
		</g>
	</g>
	<g>
		<g>
			<g>
				<defs>
					
						<rect id="SVGID_00000083053394922788770930000001679700206914215040_" x="5.1" y="9.8" transform="matrix(0.7071 -0.7071 0.7071 0.7071 -21.7993 59.3869)" width="111.4" height="92.5"/>
				</defs>
				<clipPath id="SVGID_00000181076193188105334820000002036935727837005490_">
					<use xlink:href="#SVGID_00000083053394922788770930000001679700206914215040_"  overflow="visible"/>
				</clipPath>
				<g clip-path="url(#SVGID_00000181076193188105334820000002036935727837005490_)">
					<g>
						<defs>
							
								<rect id="SVGID_00000141428027745954562150000003349961151924654514_" x="5.3" y="9.5" transform="matrix(0.7071 -0.7071 0.7071 0.7071 -21.8862 59.5966)" width="111.4" height="93.5"/>
						</defs>
						<clipPath id="SVGID_00000060712651247163572950000006573695426931280298_">
							<use xlink:href="#SVGID_00000141428027745954562150000003349961151924654514_"  overflow="visible"/>
						</clipPath>
						<g clip-path="url(#SVGID_00000060712651247163572950000006573695426931280298_)">
							<path fill="#F9BC50" d="M98.7,24.4l26.7,26.7l2.3-1.1L99.8,22.1L98.7,24.4z"/>
						</g>
					</g>
				</g>
			</g>
		</g>
	</g>
</g>
<g>
	<polygon fill="#611427" points="405.7,72.5 394.8,61.6 350.5,105.9 385.1,140.5 429.4,96.2 420.4,87.3 448.8,73.6 419.2,44 	"/>
</g>
<rect x="361.3" y="71.7" fill="none" width="58.3" height="58.3"/>
<path fill="#F9BC50" d="M395,73l-33.2,33.2l23.3,23.3l33.2-33.2L395,73z M385.1,126.4l-20.2-20.2L395,76.1l20.2,20.2L385.1,126.4z"
	/>
<g>
	<path fill="#F9BC50" d="M416.5,49.7l26.7,26.7l2.3-1.1l-27.9-27.9L416.5,49.7z"/>
</g>
<rect x="322.9" y="35" transform="matrix(0.7071 -0.7071 0.7071 0.7071 53.4137 291.4883)" fill="none" width="111.4" height="92.5"/>
<rect x="323.1" y="34.7" transform="matrix(0.7071 -0.7071 0.7071 0.7071 53.3269 291.6981)" fill="none" width="111.4" height="93.5"/>
</svg>
