<?xml version="1.0" encoding="UTF-8"?><svg xmlns="http://www.w3.org/2000/svg" xmlns:xlink="http://www.w3.org/1999/xlink" width="375pt" zoomAndPan="magnify" viewBox="0 0 375 374.999991" height="374.999991pt" preserveAspectRatio="xMidYMid meet" version="1.2"><defs><clipPath xml:id="clip1" id="clip1"><path d="M 116 220 L 129 220 L 129 234 L 116 234 Z M 116 220 "/></clipPath><clipPath xml:id="clip2" id="clip2"><path d="M 116.441406 183.761719 L 175.839844 124.363281 L 225.160156 173.6875 L 165.761719 233.082031 Z M 116.441406 183.761719 "/></clipPath><clipPath xml:id="clip3" id="clip3"><path d="M 116.441406 183.761719 L 175.839844 124.363281 L 225.6875 174.214844 L 166.292969 233.613281 Z M 116.441406 183.761719 "/></clipPath><clipPath xml:id="clip4" id="clip4"><path d="M 153 136 L 192 136 L 192 176 L 153 176 Z M 153 136 "/></clipPath><clipPath xml:id="clip5" id="clip5"><path d="M 116.441406 183.761719 L 175.839844 124.363281 L 225.160156 173.6875 L 165.761719 233.082031 Z M 116.441406 183.761719 "/></clipPath><clipPath xml:id="clip6" id="clip6"><path d="M 116.441406 183.761719 L 175.839844 124.363281 L 225.6875 174.214844 L 166.292969 233.613281 Z M 116.441406 183.761719 "/></clipPath><clipPath xml:id="clip7" id="clip7"><path d="M 125 164 L 164 164 L 164 204 L 125 204 Z M 125 164 "/></clipPath><clipPath xml:id="clip8" id="clip8"><path d="M 116.441406 183.761719 L 175.839844 124.363281 L 225.160156 173.6875 L 165.761719 233.082031 Z M 116.441406 183.761719 "/></clipPath><clipPath xml:id="clip9" id="clip9"><path d="M 116.441406 183.761719 L 175.839844 124.363281 L 225.6875 174.214844 L 166.292969 233.613281 Z M 116.441406 183.761719 "/></clipPath><clipPath xml:id="clip10" id="clip10"><path d="M 149 150 L 224 150 L 224 224 L 149 224 Z M 149 150 "/></clipPath><clipPath xml:id="clip11" id="clip11"><path d="M 116.441406 183.761719 L 175.839844 124.363281 L 225.160156 173.6875 L 165.761719 233.082031 Z M 116.441406 183.761719 "/></clipPath><clipPath xml:id="clip12" id="clip12"><path d="M 116.441406 183.761719 L 175.839844 124.363281 L 225.6875 174.214844 L 166.292969 233.613281 Z M 116.441406 183.761719 "/></clipPath><clipPath xml:id="clip13" id="clip13"><path d="M 158 172 L 201 172 L 201 216 L 158 216 Z M 158 172 "/></clipPath><clipPath xml:id="clip14" id="clip14"><path d="M 116.441406 183.761719 L 175.839844 124.363281 L 225.160156 173.6875 L 165.761719 233.082031 Z M 116.441406 183.761719 "/></clipPath><clipPath xml:id="clip15" id="clip15"><path d="M 116.441406 183.761719 L 175.839844 124.363281 L 225.6875 174.214844 L 166.292969 233.613281 Z M 116.441406 183.761719 "/></clipPath><clipPath xml:id="clip16" id="clip16"><path d="M 199 153 L 222 153 L 222 176 L 199 176 Z M 199 153 "/></clipPath><clipPath xml:id="clip17" id="clip17"><path d="M 116.441406 183.761719 L 175.839844 124.363281 L 225.160156 173.6875 L 165.761719 233.082031 Z M 116.441406 183.761719 "/></clipPath><clipPath xml:id="clip18" id="clip18"><path d="M 116.441406 183.761719 L 175.839844 124.363281 L 225.6875 174.214844 L 166.292969 233.613281 Z M 116.441406 183.761719 "/></clipPath></defs><g xml:id="surface1" id="surface1"><g clip-rule="nonzero" clip-path="url(#clip1)"><g clip-rule="nonzero" clip-path="url(#clip2)"><g clip-rule="nonzero" clip-path="url(#clip3)"><path style=" stroke:none;fill-rule:nonzero;fill:rgb(30.589294%,35.688782%,37.649536%);fill-opacity:1;" d="M 111.976562 228.605469 L 120.160156 220.425781 L 128.394531 228.664062 L 120.214844 236.84375 Z M 111.976562 228.605469 "/></g></g></g><g clip-rule="nonzero" clip-path="url(#clip4)"><g clip-rule="nonzero" clip-path="url(#clip5)"><g clip-rule="nonzero" clip-path="url(#clip6)"><path style=" stroke:none;fill-rule:nonzero;fill:rgb(97.648621%,73.728943%,31.369019%);fill-opacity:1;" d="M 158.75 142.503906 C 151.261719 149.996094 151.300781 162.195312 158.84375 169.738281 C 161.882812 172.773438 165.664062 174.585938 169.597656 175.195312 L 172.96875 171.824219 C 171.96875 171.628906 171.027344 171.136719 170.25 170.359375 C 168.179688 168.292969 168.167969 164.957031 170.222656 162.902344 C 172.277344 160.847656 175.613281 160.859375 177.679688 162.929688 C 178.457031 163.707031 178.9375 164.660156 179.144531 165.648438 L 181.839844 162.953125 C 180.835938 162.761719 179.894531 162.269531 179.117188 161.492188 C 177.050781 159.425781 177.039062 156.089844 179.09375 154.035156 C 181.144531 151.980469 184.480469 151.992188 186.550781 154.058594 C 188.617188 156.128906 188.628906 159.464844 186.574219 161.519531 C 185.933594 162.160156 185.1875 162.597656 184.375 162.832031 L 188.476562 166.933594 C 193.476562 159.46875 192.632812 149.242188 186 142.609375 C 178.417969 135.054688 166.242188 135.011719 158.75 142.503906 Z M 166.988281 164.84375 C 164.9375 166.898438 161.601562 166.886719 159.53125 164.820312 C 157.464844 162.75 157.453125 159.414062 159.507812 157.363281 C 161.558594 155.308594 164.894531 155.320312 166.964844 157.386719 C 169.03125 159.457031 169.03125 162.804688 166.988281 164.84375 Z M 168.664062 152.414062 C 166.609375 154.46875 163.273438 154.457031 161.203125 152.386719 C 159.136719 150.320312 159.125 146.984375 161.179688 144.929688 C 163.234375 142.875 166.566406 142.886719 168.636719 144.957031 C 170.691406 147.035156 170.703125 150.371094 168.664062 152.414062 Z M 181.082031 150.753906 C 179.027344 152.808594 175.691406 152.796875 173.625 150.726562 C 171.554688 148.660156 171.542969 145.324219 173.597656 143.269531 C 175.652344 141.214844 178.988281 141.226562 181.054688 143.296875 C 183.125 145.363281 183.136719 148.699219 181.082031 150.753906 Z M 181.082031 150.753906 "/></g></g></g><g clip-rule="nonzero" clip-path="url(#clip7)"><g clip-rule="nonzero" clip-path="url(#clip8)"><g clip-rule="nonzero" clip-path="url(#clip9)"><path style=" stroke:none;fill-rule:nonzero;fill:rgb(97.648621%,73.728943%,31.369019%);fill-opacity:1;" d="M 130.625 170.175781 C 123.132812 177.667969 123.175781 189.867188 130.71875 197.410156 C 136.382812 203.078125 144.679688 204.511719 151.628906 201.699219 L 148.699219 198.773438 C 146.667969 200.085938 143.902344 199.839844 142.109375 198.046875 C 140.042969 195.976562 140.03125 192.640625 142.082031 190.589844 C 144.136719 188.535156 147.472656 188.546875 149.542969 190.613281 C 150.414062 191.488281 150.917969 192.585938 151.054688 193.714844 L 154.082031 190.6875 C 152.949219 190.554688 151.851562 190.050781 150.976562 189.175781 C 148.910156 187.109375 148.898438 183.773438 150.953125 181.71875 C 153.007812 179.664062 156.34375 179.675781 158.410156 181.746094 C 159.285156 182.617188 159.789062 183.714844 159.921875 184.847656 L 163.367188 181.40625 C 162.816406 177.339844 160.992188 173.402344 157.859375 170.269531 C 150.316406 162.726562 138.117188 162.683594 130.625 170.175781 Z M 138.875 192.53125 C 136.820312 194.585938 133.484375 194.574219 131.414062 192.503906 C 129.347656 190.4375 129.335938 187.101562 131.390625 185.046875 C 133.445312 182.992188 136.78125 183.003906 138.847656 185.074219 C 140.917969 187.140625 140.929688 190.476562 138.875 192.53125 Z M 140.535156 180.085938 C 138.480469 182.140625 135.144531 182.128906 133.078125 180.0625 C 131.007812 177.992188 130.996094 174.65625 133.050781 172.601562 C 135.105469 170.550781 138.441406 170.5625 140.507812 172.628906 C 142.578125 174.695312 142.589844 178.03125 140.535156 180.085938 Z M 152.953125 170.96875 C 155.019531 173.035156 155.03125 176.371094 152.976562 178.425781 C 150.925781 180.480469 147.589844 180.46875 145.519531 178.402344 C 143.453125 176.332031 143.441406 172.996094 145.496094 170.941406 C 147.535156 168.902344 150.882812 168.898438 152.953125 170.96875 Z M 152.953125 170.96875 "/></g></g></g><g clip-rule="nonzero" clip-path="url(#clip10)"><g clip-rule="nonzero" clip-path="url(#clip11)"><g clip-rule="nonzero" clip-path="url(#clip12)"><path style=" stroke:none;fill-rule:nonzero;fill:rgb(30.589294%,35.688782%,37.649536%);fill-opacity:1;" d="M 191.355469 172.234375 L 183.152344 164.03125 L 149.753906 197.429688 L 175.816406 223.492188 L 209.214844 190.09375 L 202.496094 183.375 L 223.90625 173.058594 L 201.5625 150.714844 Z M 191.355469 172.234375 "/></g></g></g><g clip-rule="nonzero" clip-path="url(#clip13)"><g clip-rule="nonzero" clip-path="url(#clip14)"><g clip-rule="nonzero" clip-path="url(#clip15)"><path style=" stroke:none;fill-rule:nonzero;fill:rgb(100%,100%,100%);fill-opacity:1;" d="M 200.921875 190.160156 L 175.847656 215.234375 L 158.238281 197.625 L 183.300781 172.5625 L 200.910156 190.171875 Z M 175.839844 212.851562 L 198.527344 190.164062 L 183.308594 174.945312 L 160.621094 197.632812 Z M 175.839844 212.851562 "/></g></g></g><g clip-rule="nonzero" clip-path="url(#clip16)"><g clip-rule="nonzero" clip-path="url(#clip17)"><g clip-rule="nonzero" clip-path="url(#clip18)"><path style=" stroke:none;fill-rule:nonzero;fill:rgb(100%,100%,100%);fill-opacity:1;" d="M 199.515625 155.011719 L 219.636719 175.128906 L 221.371094 174.277344 L 200.355469 153.261719 Z M 199.515625 155.011719 "/></g></g></g></g></svg>