<?xml version="1.0" encoding="utf-8"?>
<!-- Generator: Adobe Illustrator 25.4.1, SVG Export Plug-In . SVG Version: 6.00 Build 0)  -->
<svg version="1.1" id="Layer_1" xmlns="http://www.w3.org/2000/svg" xmlns:xlink="http://www.w3.org/1999/xlink" x="0px" y="0px"
	 viewBox="0 0 527.99 413.16" enable-background="new 0 0 527.99 413.16" xml:space="preserve">
<rect id="Background" fill="#1D2326" width="527.99" height="413.16"/>
<rect id="Screen" x="67.77" y="105.6" fill="#FFFFFF" width="392.44" height="10.67"/>
<linearGradient id="Light_00000118389906009227710650000005078690475422107320_" gradientUnits="userSpaceOnUse" x1="263.9966" y1="119.9335" x2="263.9966" y2="418.9335">
	<stop  offset="0" style="stop-color:#FFFFFF"/>
	<stop  offset="0.1462" style="stop-color:#FFFFFF;stop-opacity:0.8538"/>
	<stop  offset="1" style="stop-color:#FFFFFF;stop-opacity:0"/>
</linearGradient>
<polygon id="Light" opacity="0.5" fill="url(#Light_00000118389906009227710650000005078690475422107320_)" points="523.77,418.93 
	4.23,418.93 67.78,119.93 460.22,119.93 "/>
<g id="_x3C_sitGroup63_x3E_">
	<path id="sit_00000162323100223126798380000012971933815380830622_" fill="#10813F" d="M466.51,354.1h-26.99v-13.82
		c2.37-1.2,7.23-3.27,13.69-3.23c6.24,0.04,10.94,2.03,13.3,3.23C466.51,346.53,466.51,347.84,466.51,354.1z"/>
	
		<rect id="back_00000052825577644720711670000010807524658001901503_" x="439.53" y="354.1" fill="#094923" width="26.99" height="5.39"/>
	<g id="arms_00000130612103139770644650000009518018183062897290_">
		<rect x="439.53" y="343.87" fill="#0D5E30" width="4.77" height="10.23"/>
		<rect x="461.75" y="343.87" fill="#0D5E30" width="4.77" height="10.23"/>
	</g>
</g>
<g id="_x3C_sitGroup62_x3E_">
	<path id="sit_00000031170176988862561400000003013352576446421137_" fill="#10813F" d="M435.01,354.1h-26.99v-13.82
		c2.37-1.2,7.23-3.27,13.69-3.23c6.24,0.04,10.94,2.03,13.3,3.23C435.01,346.53,435.01,347.84,435.01,354.1z"/>
	
		<rect id="back_00000109023666336231368820000014259251821276169404_" x="408.02" y="354.1" fill="#094923" width="26.99" height="5.39"/>
	<g id="arms_00000164472838695462247450000001218304217835665342_">
		<rect x="408.02" y="343.87" fill="#0D5E30" width="4.77" height="10.23"/>
		<rect x="430.24" y="343.87" fill="#0D5E30" width="4.77" height="10.23"/>
	</g>
</g>
<g id="_x3C_sitGroup61_x3E_">
	<path id="sit_00000121987828885938484540000015506680068954264753_" fill="#10813F" d="M403.5,354.1h-26.99v-13.82
		c2.37-1.2,7.23-3.27,13.69-3.23c6.24,0.04,10.94,2.03,13.3,3.23C403.5,346.53,403.5,347.84,403.5,354.1z"/>
	
		<rect id="back_00000177461018276011135870000008919927609154997409_" x="376.52" y="354.1" fill="#094923" width="26.99" height="5.39"/>
	<g id="arms_00000157987031026042029210000010130736690024039311_">
		<rect x="376.52" y="343.87" fill="#0D5E30" width="4.77" height="10.23"/>
		<rect x="398.74" y="343.87" fill="#0D5E30" width="4.77" height="10.23"/>
	</g>
</g>
<g id="_x3C_sitGroup60_x3E_">
	<path id="sit_00000176729339037863720330000003945996822810837170_" fill="#10813F" d="M372,354.1h-26.99v-13.82
		c2.37-1.2,7.23-3.27,13.69-3.23c6.24,0.04,10.94,2.03,13.3,3.23C372,346.53,372,347.84,372,354.1z"/>
	
		<rect id="back_00000170996145163146950150000000927502751571287991_" x="345.01" y="354.1" fill="#094923" width="26.99" height="5.39"/>
	<g id="arms_00000047750711984979074630000017601036805540839061_">
		<rect x="345.01" y="343.87" fill="#0D5E30" width="4.77" height="10.23"/>
		<rect x="367.23" y="343.87" fill="#0D5E30" width="4.77" height="10.23"/>
	</g>
</g>
<g id="_x3C_sitGroup59_x3E_">
	<path id="sit_00000070106134386372390210000013554135244276598462_" fill="#10813F" d="M340.5,354.1h-26.99v-13.82
		c2.37-1.2,7.23-3.27,13.69-3.23c6.24,0.04,10.94,2.03,13.3,3.23C340.5,346.53,340.5,347.84,340.5,354.1z"/>
	
		<rect id="back_00000016062598788454593750000009017179486455734913_" x="313.51" y="354.1" fill="#094923" width="26.99" height="5.39"/>
	<g id="arms_00000147942484910125034390000000954712431564993419_">
		<rect x="313.51" y="343.87" fill="#0D5E30" width="4.77" height="10.23"/>
		<rect x="335.73" y="343.87" fill="#0D5E30" width="4.77" height="10.23"/>
	</g>
</g>
<g id="_x3C_sitGroup58_x3E_">
	<path id="sit_00000040569816138239455810000015287870986523936400_" fill="#10813F" d="M308.99,354.1H282v-13.82
		c2.37-1.2,7.23-3.27,13.69-3.23c6.24,0.04,10.94,2.03,13.3,3.23C308.99,346.53,308.99,347.84,308.99,354.1z"/>
	
		<rect id="back_00000021102660438924244480000004991717426899128228_" x="282" y="354.1" fill="#094923" width="26.99" height="5.39"/>
	<g id="arms_00000121993684854422688750000010787819558941772965_">
		<rect x="282" y="343.87" fill="#0D5E30" width="4.77" height="10.23"/>
		<rect x="304.22" y="343.87" fill="#0D5E30" width="4.77" height="10.23"/>
	</g>
</g>
<g id="_x3C_sitGroup57_x3E_">
	<path id="sit_00000046317862803781439720000017848657760676028092_" fill="#10813F" d="M277.49,354.1H250.5v-13.82
		c2.37-1.2,7.23-3.27,13.69-3.23c6.24,0.04,10.94,2.03,13.3,3.23C277.49,346.53,277.49,347.84,277.49,354.1z"/>
	
		<rect id="back_00000038398827544817314810000004502476381082644397_" x="250.5" y="354.1" fill="#094923" width="26.99" height="5.39"/>
	<g id="arms_00000155866887807704474340000012250029408901910969_">
		<rect x="250.5" y="343.87" fill="#0D5E30" width="4.77" height="10.23"/>
		<rect x="272.72" y="343.87" fill="#0D5E30" width="4.77" height="10.23"/>
	</g>
</g>
<g id="_x3C_sitGroup56_x3E_">
	<path id="sit_00000177476169901423602160000015733221445792848526_" fill="#10813F" d="M245.98,354.1H219v-13.82
		c2.37-1.2,7.23-3.27,13.69-3.23c6.24,0.04,10.94,2.03,13.3,3.23C245.98,346.53,245.98,347.84,245.98,354.1z"/>
	
		<rect id="back_00000097493005355153955320000014885635284389832356_" x="219" y="354.1" fill="#094923" width="26.99" height="5.39"/>
	<g id="arms_00000124158808137129334010000001001932295247240340_">
		<rect x="219" y="343.87" fill="#0D5E30" width="4.77" height="10.23"/>
		<rect x="241.22" y="343.87" fill="#0D5E30" width="4.77" height="10.23"/>
	</g>
</g>
<g id="_x3C_sitGroup55_x3E_">
	<path id="sit_00000038385693996955156480000002760871258715830673_" fill="#10813F" d="M214.48,354.1h-26.99v-13.82
		c2.37-1.2,7.23-3.27,13.69-3.23c6.24,0.04,10.94,2.03,13.3,3.23C214.48,346.53,214.48,347.84,214.48,354.1z"/>
	
		<rect id="back_00000177456229485648745760000014776874480423818914_" x="187.49" y="354.1" fill="#094923" width="26.99" height="5.39"/>
	<g id="arms_00000152980814776639089510000007416248134981534626_">
		<rect x="187.49" y="343.87" fill="#0D5E30" width="4.77" height="10.23"/>
		<rect x="209.71" y="343.87" fill="#0D5E30" width="4.77" height="10.23"/>
	</g>
</g>
<g id="_x3C_sitGroup54_x3E_">
	<path id="sit_00000125566326672712255660000010117886541297377968_" fill="#10813F" d="M182.97,354.1h-26.99v-13.82
		c2.37-1.2,7.23-3.27,13.69-3.23c6.24,0.04,10.94,2.03,13.3,3.23C182.97,346.53,182.97,347.84,182.97,354.1z"/>
	
		<rect id="back_00000156589817682261707600000003257861862010513334_" x="155.99" y="354.1" fill="#094923" width="26.99" height="5.39"/>
	<g id="arms_00000058558146631806175210000011806792844856400515_">
		<rect x="155.99" y="343.87" fill="#0D5E30" width="4.77" height="10.23"/>
		<rect x="178.21" y="343.87" fill="#0D5E30" width="4.77" height="10.23"/>
	</g>
</g>
<g id="_x3C_sitGroup53_x3E_">
	<path id="sit_00000134227798290917979600000015122932954309811381_" fill="#10813F" d="M151.47,354.1h-26.99v-13.82
		c2.37-1.2,7.23-3.27,13.69-3.23c6.24,0.04,10.94,2.03,13.3,3.23C151.47,346.53,151.47,347.84,151.47,354.1z"/>
	
		<rect id="back_00000082351387176416830090000000001537649397353636_" x="124.48" y="354.1" fill="#094923" width="26.99" height="5.39"/>
	<g id="arms_00000072978101010565953760000002641188108581811858_">
		<rect x="124.48" y="343.87" fill="#0D5E30" width="4.77" height="10.23"/>
		<rect x="146.7" y="343.87" fill="#0D5E30" width="4.77" height="10.23"/>
	</g>
</g>
<g id="_x3C_sitGroup52_x3E_">
	<path id="sit_00000095338471807129023710000013366386042055668123_" fill="#10813F" d="M119.97,354.1H92.98v-13.82
		c2.37-1.2,7.23-3.27,13.69-3.23c6.24,0.04,10.94,2.03,13.3,3.23C119.97,346.53,119.97,347.84,119.97,354.1z"/>
	
		<rect id="back_00000165948193859686300780000017729156098232410289_" x="92.98" y="354.1" fill="#094923" width="26.99" height="5.39"/>
	<g id="arms_00000067933978328266626630000012129496021006631082_">
		<rect x="92.98" y="343.87" fill="#0D5E30" width="4.77" height="10.23"/>
		<rect x="115.2" y="343.87" fill="#0D5E30" width="4.77" height="10.23"/>
	</g>
</g>
<g id="_x3C_sitGroup51_x3E_">
	<path id="sit_00000140734186352666862960000011217900502744628913_" fill="#10813F" d="M88.46,354.1H61.47v-13.82
		c2.37-1.2,7.23-3.27,13.69-3.23c6.24,0.04,10.94,2.03,13.3,3.23C88.46,346.53,88.46,347.84,88.46,354.1z"/>
	
		<rect id="back_00000132081754432429210750000007829685646870663078_" x="61.47" y="354.1" fill="#094923" width="26.99" height="5.39"/>
	<g id="arms_00000049902460453097056790000007975787520800480946_">
		<rect x="61.47" y="343.87" fill="#0D5E30" width="4.77" height="10.23"/>
		<rect x="83.69" y="343.87" fill="#0D5E30" width="4.77" height="10.23"/>
	</g>
</g>
<g id="_x3C_sitGroup50_x3E_">
	<path id="sit_00000081622443984102122650000018300171121654243475_" fill="#10813F" d="M466.51,319.43h-26.99v-13.82
		c2.37-1.2,7.23-3.27,13.69-3.23c6.24,0.04,10.94,2.03,13.3,3.23C466.51,311.86,466.51,313.17,466.51,319.43z"/>
	
		<rect id="back_00000141448965011033587430000004266964913556150927_" x="439.53" y="319.43" fill="#094923" width="26.99" height="5.39"/>
	<g id="arms_00000085215677052267148170000016336201474520429244_">
		<rect x="439.53" y="309.2" fill="#0D5E30" width="4.77" height="10.23"/>
		<rect x="461.75" y="309.2" fill="#0D5E30" width="4.77" height="10.23"/>
	</g>
</g>
<g id="_x3C_sitGroup49_x3E_">
	<path id="sit_00000110428832918415969320000004351049412431963781_" fill="#10813F" d="M435.01,319.43h-26.99v-13.82
		c2.37-1.2,7.23-3.27,13.69-3.23c6.24,0.04,10.94,2.03,13.3,3.23C435.01,311.86,435.01,313.17,435.01,319.43z"/>
	
		<rect id="back_00000160166419842682818280000003386532711731625127_" x="408.02" y="319.43" fill="#094923" width="26.99" height="5.39"/>
	<g id="arms_00000003074349199532101390000017418784874074455732_">
		<rect x="408.02" y="309.2" fill="#0D5E30" width="4.77" height="10.23"/>
		<rect x="430.24" y="309.2" fill="#0D5E30" width="4.77" height="10.23"/>
	</g>
</g>
<g id="_x3C_sitGroup48_x3E_">
	<path id="sit_00000010273366391004814660000013320723008554508445_" fill="#10813F" d="M403.5,319.43h-26.99v-13.82
		c2.37-1.2,7.23-3.27,13.69-3.23c6.24,0.04,10.94,2.03,13.3,3.23C403.5,311.86,403.5,313.17,403.5,319.43z"/>
	
		<rect id="back_00000047051891618846456010000000370609521203141527_" x="376.52" y="319.43" fill="#094923" width="26.99" height="5.39"/>
	<g id="arms_00000028327235663197347200000000422403734180112516_">
		<rect x="376.52" y="309.2" fill="#0D5E30" width="4.77" height="10.23"/>
		<rect x="398.74" y="309.2" fill="#0D5E30" width="4.77" height="10.23"/>
	</g>
</g>
<g id="_x3C_sitGroup47_x3E_">
	<path id="sit_00000066480727400759291820000013515640196565092504_" fill="#10813F" d="M372,319.43h-26.99v-13.82
		c2.37-1.2,7.23-3.27,13.69-3.23c6.24,0.04,10.94,2.03,13.3,3.23C372,311.86,372,313.17,372,319.43z"/>
	
		<rect id="back_00000144332290445095201270000007314534456313397694_" x="345.01" y="319.43" fill="#094923" width="26.99" height="5.39"/>
	<g id="arms_00000029021746095152293540000004668800228518969776_">
		<rect x="345.01" y="309.2" fill="#0D5E30" width="4.77" height="10.23"/>
		<rect x="367.23" y="309.2" fill="#0D5E30" width="4.77" height="10.23"/>
	</g>
</g>
<g id="_x3C_sitGroup46_x3E_">
	<path id="sit_00000106852153262212367860000000672122975963129777_" fill="#10813F" d="M340.5,319.43h-26.99v-13.82
		c2.37-1.2,7.23-3.27,13.69-3.23c6.24,0.04,10.94,2.03,13.3,3.23C340.5,311.86,340.5,313.17,340.5,319.43z"/>
	
		<rect id="back_00000152261292400975779150000007082601691474258837_" x="313.51" y="319.43" fill="#094923" width="26.99" height="5.39"/>
	<g id="arms_00000127023975752159834830000018190720291203663491_">
		<rect x="313.51" y="309.2" fill="#0D5E30" width="4.77" height="10.23"/>
		<rect x="335.73" y="309.2" fill="#0D5E30" width="4.77" height="10.23"/>
	</g>
</g>
<g id="_x3C_sitGroup45_x3E_">
	<path id="sit_00000117639970449629913640000012216008828857413042_" fill="#10813F" d="M308.99,319.43H282v-13.82
		c2.37-1.2,7.23-3.27,13.69-3.23c6.24,0.04,10.94,2.03,13.3,3.23C308.99,311.86,308.99,313.17,308.99,319.43z"/>
	
		<rect id="back_00000181783619512196133790000008578279286130298551_" x="282" y="319.43" fill="#094923" width="26.99" height="5.39"/>
	<g id="arms_00000176045574912915279150000002658070936843228849_">
		<rect x="282" y="309.2" fill="#0D5E30" width="4.77" height="10.23"/>
		<rect x="304.22" y="309.2" fill="#0D5E30" width="4.77" height="10.23"/>
	</g>
</g>
<g id="_x3C_sitGroup44_x3E_">
	<path id="sit_00000008127535800971244060000010904302463499650215_" fill="#10813F" d="M277.49,319.43H250.5v-13.82
		c2.37-1.2,7.23-3.27,13.69-3.23c6.24,0.04,10.94,2.03,13.3,3.23C277.49,311.86,277.49,313.17,277.49,319.43z"/>
	
		<rect id="back_00000072987871528099286970000005985551533709472142_" x="250.5" y="319.43" fill="#094923" width="26.99" height="5.39"/>
	<g id="arms_00000053506082675333545460000010352628161257977769_">
		<rect x="250.5" y="309.2" fill="#0D5E30" width="4.77" height="10.23"/>
		<rect x="272.72" y="309.2" fill="#0D5E30" width="4.77" height="10.23"/>
	</g>
</g>
<g id="_x3C_sitGroup43_x3E_">
	<path id="sit_00000160912733337217358340000005001383743320908734_" fill="#10813F" d="M245.98,319.43H219v-13.82
		c2.37-1.2,7.23-3.27,13.69-3.23c6.24,0.04,10.94,2.03,13.3,3.23C245.98,311.86,245.98,313.17,245.98,319.43z"/>
	
		<rect id="back_00000115486193260429849960000010032996947348032643_" x="219" y="319.43" fill="#094923" width="26.99" height="5.39"/>
	<g id="arms_00000109730655564680301130000002818176257258219414_">
		<rect x="219" y="309.2" fill="#0D5E30" width="4.77" height="10.23"/>
		<rect x="241.22" y="309.2" fill="#0D5E30" width="4.77" height="10.23"/>
	</g>
</g>
<g id="_x3C_sitGroup42_x3E_">
	<path id="sit_00000136413188736112610620000016920341530451159698_" fill="#10813F" d="M214.48,319.43h-26.99v-13.82
		c2.37-1.2,7.23-3.27,13.69-3.23c6.24,0.04,10.94,2.03,13.3,3.23C214.48,311.86,214.48,313.17,214.48,319.43z"/>
	
		<rect id="back_00000018237134759939515410000010000723886501057920_" x="187.49" y="319.43" fill="#094923" width="26.99" height="5.39"/>
	<g id="arms_00000140013254642533441210000014574611772103601852_">
		<rect x="187.49" y="309.2" fill="#0D5E30" width="4.77" height="10.23"/>
		<rect x="209.71" y="309.2" fill="#0D5E30" width="4.77" height="10.23"/>
	</g>
</g>
<g id="_x3C_sitGroup41_x3E_">
	<path id="sit_00000075840831557462958990000001090725383114917762_" fill="#10813F" d="M182.97,319.43h-26.99v-13.82
		c2.37-1.2,7.23-3.27,13.69-3.23c6.24,0.04,10.94,2.03,13.3,3.23C182.97,311.86,182.97,313.17,182.97,319.43z"/>
	
		<rect id="back_00000148629287722059045610000014225212625456571065_" x="155.99" y="319.43" fill="#094923" width="26.99" height="5.39"/>
	<g id="arms_00000018207855515109157060000016266058942110988712_">
		<rect x="155.99" y="309.2" fill="#0D5E30" width="4.77" height="10.23"/>
		<rect x="178.21" y="309.2" fill="#0D5E30" width="4.77" height="10.23"/>
	</g>
</g>
<g id="_x3C_sitGroup40_x3E_">
	<path id="sit_00000142878496253584478830000000334222274635142543_" fill="#10813F" d="M151.47,319.43h-26.99v-13.82
		c2.37-1.2,7.23-3.27,13.69-3.23c6.24,0.04,10.94,2.03,13.3,3.23C151.47,311.86,151.47,313.17,151.47,319.43z"/>
	
		<rect id="back_00000074412421310921475980000007794607392231547049_" x="124.48" y="319.43" fill="#094923" width="26.99" height="5.39"/>
	<g id="arms_00000112631679203586071310000002227583720683591611_">
		<rect x="124.48" y="309.2" fill="#0D5E30" width="4.77" height="10.23"/>
		<rect x="146.7" y="309.2" fill="#0D5E30" width="4.77" height="10.23"/>
	</g>
</g>
<g id="_x3C_sitGroup39_x3E_">
	<path id="sit_00000128466649985092306180000011176721767650803082_" fill="#10813F" d="M119.97,319.43H92.98v-13.82
		c2.37-1.2,7.23-3.27,13.69-3.23c6.24,0.04,10.94,2.03,13.3,3.23C119.97,311.86,119.97,313.17,119.97,319.43z"/>
	
		<rect id="back_00000081643206249097954360000011717613119013865387_" x="92.98" y="319.43" fill="#094923" width="26.99" height="5.39"/>
	<g id="arms_00000134250875300314466880000015259111964578676150_">
		<rect x="92.98" y="309.2" fill="#0D5E30" width="4.77" height="10.23"/>
		<rect x="115.2" y="309.2" fill="#0D5E30" width="4.77" height="10.23"/>
	</g>
</g>
<g id="_x3C_sitGroup38_x3E_">
	<path id="sit_00000126324096661770971000000008445246254355646622_" fill="#10813F" d="M88.46,319.43H61.47v-13.82
		c2.37-1.2,7.23-3.27,13.69-3.23c6.24,0.04,10.94,2.03,13.3,3.23C88.46,311.86,88.46,313.17,88.46,319.43z"/>
	
		<rect id="back_00000115478886401262781590000003015771612752960141_" x="61.47" y="319.43" fill="#094923" width="26.99" height="5.39"/>
	<g id="arms_00000036249866140020154790000002149875643473616828_">
		<rect x="61.47" y="309.2" fill="#0D5E30" width="4.77" height="10.23"/>
		<rect x="83.69" y="309.2" fill="#0D5E30" width="4.77" height="10.23"/>
	</g>
</g>
<g id="_x3C_sitGroup37_x3E_">
	<path id="sit_00000162319361359025223060000007451281263796300470_" fill="#10813F" d="M466.51,265.76h-26.99v-13.82
		c2.37-1.2,7.23-3.27,13.69-3.23c6.24,0.04,10.94,2.03,13.3,3.23C466.51,258.2,466.51,259.51,466.51,265.76z"/>
	
		<rect id="back_00000160906462916143441210000009726352055507027844_" x="439.53" y="265.76" fill="#094923" width="26.99" height="5.39"/>
	<g id="arms_00000134952170899563702920000003756551349688102071_">
		<rect x="439.53" y="255.53" fill="#0D5E30" width="4.77" height="10.23"/>
		<rect x="461.75" y="255.53" fill="#0D5E30" width="4.77" height="10.23"/>
	</g>
</g>
<g id="_x3C_sitGroup36_x3E_">
	<path id="sit_00000055670647022849709170000014180693022348513955_" fill="#10813F" d="M435.01,265.76h-26.99v-13.82
		c2.37-1.2,7.23-3.27,13.69-3.23c6.24,0.04,10.94,2.03,13.3,3.23C435.01,258.2,435.01,259.51,435.01,265.76z"/>
	
		<rect id="back_00000087373757937970536800000005876172536697618056_" x="408.02" y="265.76" fill="#094923" width="26.99" height="5.39"/>
	<g id="arms_00000044142021661756168260000016982610725180093347_">
		<rect x="408.02" y="255.53" fill="#0D5E30" width="4.77" height="10.23"/>
		<rect x="430.24" y="255.53" fill="#0D5E30" width="4.77" height="10.23"/>
	</g>
</g>
<g id="_x3C_sitGroup35_x3E_">
	<path id="sit_00000168093378134825598730000013199347067218327436_" fill="#10813F" d="M403.5,265.76h-26.99v-13.82
		c2.37-1.2,7.23-3.27,13.69-3.23c6.24,0.04,10.94,2.03,13.3,3.23C403.5,258.2,403.5,259.51,403.5,265.76z"/>
	
		<rect id="back_00000082353438341505320820000007733358297196997295_" x="376.52" y="265.76" fill="#094923" width="26.99" height="5.39"/>
	<g id="arms_00000051368765458941501760000004361247346089260460_">
		<rect x="376.52" y="255.53" fill="#0D5E30" width="4.77" height="10.23"/>
		<rect x="398.74" y="255.53" fill="#0D5E30" width="4.77" height="10.23"/>
	</g>
</g>
<g id="_x3C_sitGroup34_x3E_">
	<path id="sit_00000094579646656670302280000015426783666285172379_" fill="#10813F" d="M372,265.76h-26.99v-13.82
		c2.37-1.2,7.23-3.27,13.69-3.23c6.24,0.04,10.94,2.03,13.3,3.23C372,258.2,372,259.51,372,265.76z"/>
	
		<rect id="back_00000176004121913045215590000014327131473893196217_" x="345.01" y="265.76" fill="#094923" width="26.99" height="5.39"/>
	<g id="arms_00000003087957072127426500000001009041293071050402_">
		<rect x="345.01" y="255.53" fill="#0D5E30" width="4.77" height="10.23"/>
		<rect x="367.23" y="255.53" fill="#0D5E30" width="4.77" height="10.23"/>
	</g>
</g>
<g id="_x3C_sitGroup33_x3E_">
	<path id="sit_00000061469462465317403210000002693757400166103190_" fill="#10813F" d="M340.5,265.76h-26.99v-13.82
		c2.37-1.2,7.23-3.27,13.69-3.23c6.24,0.04,10.94,2.03,13.3,3.23C340.5,258.2,340.5,259.51,340.5,265.76z"/>
	
		<rect id="back_00000023244059108295562550000007360757363960406188_" x="313.51" y="265.76" fill="#094923" width="26.99" height="5.39"/>
	<g id="arms_00000177469272939236089040000005073986973061987980_">
		<rect x="313.51" y="255.53" fill="#0D5E30" width="4.77" height="10.23"/>
		<rect x="335.73" y="255.53" fill="#0D5E30" width="4.77" height="10.23"/>
	</g>
</g>
<g id="_x3C_sitGroup32_x3E_">
	<path id="sit_00000078030477763546505430000009243442678719269026_" fill="#10813F" d="M308.99,265.76H282v-13.82
		c2.37-1.2,7.23-3.27,13.69-3.23c6.24,0.04,10.94,2.03,13.3,3.23C308.99,258.2,308.99,259.51,308.99,265.76z"/>
	
		<rect id="back_00000101801774838845253630000000354875367849372838_" x="282" y="265.76" fill="#094923" width="26.99" height="5.39"/>
	<g id="arms_00000074442545568677564670000008762529040995742092_">
		<rect x="282" y="255.53" fill="#0D5E30" width="4.77" height="10.23"/>
		<rect x="304.22" y="255.53" fill="#0D5E30" width="4.77" height="10.23"/>
	</g>
</g>
<g id="_x3C_sitGroup31_x3E_">
	<path id="sit_00000009568719768758798530000001157644653523845026_" fill="#10813F" d="M277.49,265.76H250.5v-13.82
		c2.37-1.2,7.23-3.27,13.69-3.23c6.24,0.04,10.94,2.03,13.3,3.23C277.49,258.2,277.49,259.51,277.49,265.76z"/>
	
		<rect id="back_00000142174586804098227600000012904245242815592870_" x="250.5" y="265.76" fill="#094923" width="26.99" height="5.39"/>
	<g id="arms_00000072986556035447997110000011459250202505977004_">
		<rect x="250.5" y="255.53" fill="#0D5E30" width="4.77" height="10.23"/>
		<rect x="272.72" y="255.53" fill="#0D5E30" width="4.77" height="10.23"/>
	</g>
</g>
<g id="_x3C_sitGroup30_x3E_">
	<path id="sit_00000039111993488575964760000015616754972099673508_" fill="#10813F" d="M245.98,265.76H219v-13.82
		c2.37-1.2,7.23-3.27,13.69-3.23c6.24,0.04,10.94,2.03,13.3,3.23C245.98,258.2,245.98,259.51,245.98,265.76z"/>
	
		<rect id="back_00000037656409675742931080000016055303974653003695_" x="219" y="265.76" fill="#094923" width="26.99" height="5.39"/>
	<g id="arms_00000044883280710116130910000016192887449891532209_">
		<rect x="219" y="255.53" fill="#0D5E30" width="4.77" height="10.23"/>
		<rect x="241.22" y="255.53" fill="#0D5E30" width="4.77" height="10.23"/>
	</g>
</g>
<g id="_x3C_sitGroup29_x3E_">
	<path id="sit_00000010290748598323704250000001044820557740183469_" fill="#10813F" d="M214.48,265.76h-26.99v-13.82
		c2.37-1.2,7.23-3.27,13.69-3.23c6.24,0.04,10.94,2.03,13.3,3.23C214.48,258.2,214.48,259.51,214.48,265.76z"/>
	
		<rect id="back_00000130638100289756155200000014767498888822834087_" x="187.49" y="265.76" fill="#094923" width="26.99" height="5.39"/>
	<g id="arms_00000116205552664813368700000002256361607421579709_">
		<rect x="187.49" y="255.53" fill="#0D5E30" width="4.77" height="10.23"/>
		<rect x="209.71" y="255.53" fill="#0D5E30" width="4.77" height="10.23"/>
	</g>
</g>
<g id="_x3C_sitGroup28_x3E_">
	<path id="sit_00000134948551747655784120000014137531278139366335_" fill="#10813F" d="M182.97,265.76h-26.99v-13.82
		c2.37-1.2,7.23-3.27,13.69-3.23c6.24,0.04,10.94,2.03,13.3,3.23C182.97,258.2,182.97,259.51,182.97,265.76z"/>
	
		<rect id="back_00000154404660312181520920000000367706892676404876_" x="155.99" y="265.76" fill="#094923" width="26.99" height="5.39"/>
	<g id="arms_00000168831545440684653970000005709859450867514763_">
		<rect x="155.99" y="255.53" fill="#0D5E30" width="4.77" height="10.23"/>
		<rect x="178.21" y="255.53" fill="#0D5E30" width="4.77" height="10.23"/>
	</g>
</g>
<g id="_x3C_sitGroup27_x3E_">
	<path id="sit_00000091708288687523950860000003855456734943450015_" fill="#10813F" d="M151.47,265.76h-26.99v-13.82
		c2.37-1.2,7.23-3.27,13.69-3.23c6.24,0.04,10.94,2.03,13.3,3.23C151.47,258.2,151.47,259.51,151.47,265.76z"/>
	
		<rect id="back_00000160178293356049069710000013716240332811185842_" x="124.48" y="265.76" fill="#094923" width="26.99" height="5.39"/>
	<g id="arms_00000142874752199218653580000012729671152749912481_">
		<rect x="124.48" y="255.53" fill="#0D5E30" width="4.77" height="10.23"/>
		<rect x="146.7" y="255.53" fill="#0D5E30" width="4.77" height="10.23"/>
	</g>
</g>
<g id="_x3C_sitGroup26_x3E_">
	<path id="sit_00000068657758949133958950000012806209838544394427_" fill="#10813F" d="M119.97,265.76H92.98v-13.82
		c2.37-1.2,7.23-3.27,13.69-3.23c6.24,0.04,10.94,2.03,13.3,3.23C119.97,258.2,119.97,259.51,119.97,265.76z"/>
	
		<rect id="back_00000181065396537650156050000016499764642586036145_" x="92.98" y="265.76" fill="#094923" width="26.99" height="5.39"/>
	<g id="arms_00000089549564856383928920000003939575070069961107_">
		<rect x="92.98" y="255.53" fill="#0D5E30" width="4.77" height="10.23"/>
		<rect x="115.2" y="255.53" fill="#0D5E30" width="4.77" height="10.23"/>
	</g>
</g>
<g id="_x3C_sitGroup25_x3E_">
	<path id="sit_00000013176087417445474680000003291975407259485079_" fill="#10813F" d="M88.46,265.76H61.47v-13.82
		c2.37-1.2,7.23-3.27,13.69-3.23c6.24,0.04,10.94,2.03,13.3,3.23C88.46,258.2,88.46,259.51,88.46,265.76z"/>
	
		<rect id="back_00000072239908131332444830000017621542722301438122_" x="61.47" y="265.76" fill="#094923" width="26.99" height="5.39"/>
	<g id="arms_00000075139720531058456040000011353974845183077040_">
		<rect x="61.47" y="255.53" fill="#0D5E30" width="4.77" height="10.23"/>
		<rect x="83.69" y="255.53" fill="#0D5E30" width="4.77" height="10.23"/>
	</g>
</g>
<g id="_x3C_sitGroup24_x3E_">
	<path id="sit_00000073707239222337406480000012141850642674512542_" fill="#10813F" d="M466.51,231.1h-26.99v-13.82
		c2.37-1.2,7.23-3.27,13.69-3.23c6.24,0.04,10.94,2.03,13.3,3.23C466.51,223.53,466.51,224.84,466.51,231.1z"/>
	
		<rect id="back_00000056397909681275584580000005173057802338696112_" x="439.53" y="231.1" fill="#094923" width="26.99" height="5.39"/>
	<g id="arms_00000154390038529901294320000004763375428332684951_">
		<rect x="439.53" y="220.87" fill="#0D5E30" width="4.77" height="10.23"/>
		<rect x="461.75" y="220.87" fill="#0D5E30" width="4.77" height="10.23"/>
	</g>
</g>
<g id="_x3C_sitGroup23_x3E_">
	<path id="sit_00000158016046283419230810000013204209118844613254_" fill="#10813F" d="M435.01,231.1h-26.99v-13.82
		c2.37-1.2,7.23-3.27,13.69-3.23c6.24,0.04,10.94,2.03,13.3,3.23C435.01,223.53,435.01,224.84,435.01,231.1z"/>
	
		<rect id="back_00000172434134370799776760000010419896421404676520_" x="408.02" y="231.1" fill="#094923" width="26.99" height="5.39"/>
	<g id="arms_00000163780504683137545590000014145939990754161579_">
		<rect x="408.02" y="220.87" fill="#0D5E30" width="4.77" height="10.23"/>
		<rect x="430.24" y="220.87" fill="#0D5E30" width="4.77" height="10.23"/>
	</g>
</g>
<g id="_x3C_sitGroup22_x3E_">
	<path id="sit_00000130604734872393626600000014165308610624465289_" fill="#10813F" d="M403.5,231.1h-26.99v-13.82
		c2.37-1.2,7.23-3.27,13.69-3.23c6.24,0.04,10.94,2.03,13.3,3.23C403.5,223.53,403.5,224.84,403.5,231.1z"/>
	
		<rect id="back_00000029040620421148680110000010048556532400990100_" x="376.52" y="231.1" fill="#094923" width="26.99" height="5.39"/>
	<g id="arms_00000070805911499058189730000007945364080399163538_">
		<rect x="376.52" y="220.87" fill="#0D5E30" width="4.77" height="10.23"/>
		<rect x="398.74" y="220.87" fill="#0D5E30" width="4.77" height="10.23"/>
	</g>
</g>
<g id="_x3C_sitGroup21_x3E_">
	<path id="sit_00000080892807288069297970000015335371251775571391_" fill="#10813F" d="M372,231.1h-26.99v-13.82
		c2.37-1.2,7.23-3.27,13.69-3.23c6.24,0.04,10.94,2.03,13.3,3.23C372,223.53,372,224.84,372,231.1z"/>
	
		<rect id="back_00000085212556280592509410000004240507824689842059_" x="345.01" y="231.1" fill="#094923" width="26.99" height="5.39"/>
	<g id="arms_00000080910899204775367490000008994734910354785446_">
		<rect x="345.01" y="220.87" fill="#0D5E30" width="4.77" height="10.23"/>
		<rect x="367.23" y="220.87" fill="#0D5E30" width="4.77" height="10.23"/>
	</g>
</g>
<g id="_x3C_sitGroup20_x3E_">
	<path id="sit_00000021087458793878429280000008419106368015679140_" fill="#10813F" d="M340.5,231.1h-26.99v-13.82
		c2.37-1.2,7.23-3.27,13.69-3.23c6.24,0.04,10.94,2.03,13.3,3.23C340.5,223.53,340.5,224.84,340.5,231.1z"/>
	
		<rect id="back_00000005262583316993831540000008834976890149896859_" x="313.51" y="231.1" fill="#094923" width="26.99" height="5.39"/>
	<g id="arms_00000034081365915848143430000005686819154846893196_">
		<rect x="313.51" y="220.87" fill="#0D5E30" width="4.77" height="10.23"/>
		<rect x="335.73" y="220.87" fill="#0D5E30" width="4.77" height="10.23"/>
	</g>
</g>
<g id="_x3C_sitGroup19_x3E_">
	<path id="sit_00000121273178216999209850000007529161269834673803_" fill="#10813F" d="M308.99,231.1H282v-13.82
		c2.37-1.2,7.23-3.27,13.69-3.23c6.24,0.04,10.94,2.03,13.3,3.23C308.99,223.53,308.99,224.84,308.99,231.1z"/>
	
		<rect id="back_00000057847103423337142310000013913459901887433864_" x="282" y="231.1" fill="#094923" width="26.99" height="5.39"/>
	<g id="arms_00000132779487202617990010000018395216025788874641_">
		<rect x="282" y="220.87" fill="#0D5E30" width="4.77" height="10.23"/>
		<rect x="304.22" y="220.87" fill="#0D5E30" width="4.77" height="10.23"/>
	</g>
</g>
<g id="_x3C_sitGroup18_x3E_">
	<path id="sit_00000031201194984073051190000004690042187018046622_" fill="#10813F" d="M277.49,231.1H250.5v-13.82
		c2.37-1.2,7.23-3.27,13.69-3.23c6.24,0.04,10.94,2.03,13.3,3.23C277.49,223.53,277.49,224.84,277.49,231.1z"/>
	
		<rect id="back_00000056429197196238718640000000012271149806625944_" x="250.5" y="231.1" fill="#094923" width="26.99" height="5.39"/>
	<g id="arms_00000107566096557051916440000001360762958728050078_">
		<rect x="250.5" y="220.87" fill="#0D5E30" width="4.77" height="10.23"/>
		<rect x="272.72" y="220.87" fill="#0D5E30" width="4.77" height="10.23"/>
	</g>
</g>
<g id="_x3C_sitGroup17_x3E_">
	<path id="sit_00000096022532802622699760000017872109022839771051_" fill="#10813F" d="M245.98,231.1H219v-13.82
		c2.37-1.2,7.23-3.27,13.69-3.23c6.24,0.04,10.94,2.03,13.3,3.23C245.98,223.53,245.98,224.84,245.98,231.1z"/>
	
		<rect id="back_00000161617641120632349960000007353788435823323022_" x="219" y="231.1" fill="#094923" width="26.99" height="5.39"/>
	<g id="arms_00000173880520414782451500000007205861933317510837_">
		<rect x="219" y="220.87" fill="#0D5E30" width="4.77" height="10.23"/>
		<rect x="241.22" y="220.87" fill="#0D5E30" width="4.77" height="10.23"/>
	</g>
</g>
<g id="_x3C_sitGroup16_x3E_">
	<path id="sit_00000052079305438517205660000001164737238998162344_" fill="#10813F" d="M214.48,231.1h-26.99v-13.82
		c2.37-1.2,7.23-3.27,13.69-3.23c6.24,0.04,10.94,2.03,13.3,3.23C214.48,223.53,214.48,224.84,214.48,231.1z"/>
	
		<rect id="back_00000098917418047899123420000008982041791387097478_" x="187.49" y="231.1" fill="#094923" width="26.99" height="5.39"/>
	<g id="arms_00000076577436692166680690000016803892362972312449_">
		<rect x="187.49" y="220.87" fill="#0D5E30" width="4.77" height="10.23"/>
		<rect x="209.71" y="220.87" fill="#0D5E30" width="4.77" height="10.23"/>
	</g>
</g>
<g id="_x3C_sitGroup15_x3E_">
	<path id="sit_00000139291160634772586670000000802824460806142081_" fill="#10813F" d="M182.97,231.1h-26.99v-13.82
		c2.37-1.2,7.23-3.27,13.69-3.23c6.24,0.04,10.94,2.03,13.3,3.23C182.97,223.53,182.97,224.84,182.97,231.1z"/>
	
		<rect id="back_00000161614932452624713240000001944150656875283089_" x="155.99" y="231.1" fill="#094923" width="26.99" height="5.39"/>
	<g id="arms_00000036935644571880763700000017322928211233128614_">
		<rect x="155.99" y="220.87" fill="#0D5E30" width="4.77" height="10.23"/>
		<rect x="178.21" y="220.87" fill="#0D5E30" width="4.77" height="10.23"/>
	</g>
</g>
<g id="_x3C_sitGroup14_x3E_">
	<path id="sit_00000109010951063856937330000016984824928130361248_" fill="#10813F" d="M151.47,231.1h-26.99v-13.82
		c2.37-1.2,7.23-3.27,13.69-3.23c6.24,0.04,10.94,2.03,13.3,3.23C151.47,223.53,151.47,224.84,151.47,231.1z"/>
	
		<rect id="back_00000039115128236361031090000004383905578654512305_" x="124.48" y="231.1" fill="#094923" width="26.99" height="5.39"/>
	<g id="arms_00000052093484415323880830000005305354506047546253_">
		<rect x="124.48" y="220.87" fill="#0D5E30" width="4.77" height="10.23"/>
		<rect x="146.7" y="220.87" fill="#0D5E30" width="4.77" height="10.23"/>
	</g>
</g>
<g id="_x3C_sitGroup13_x3E_">
	<path id="sit_00000146466210996879691950000000738119366465891769_" fill="#10813F" d="M119.97,231.1H92.98v-13.82
		c2.37-1.2,7.23-3.27,13.69-3.23c6.24,0.04,10.94,2.03,13.3,3.23C119.97,223.53,119.97,224.84,119.97,231.1z"/>
	
		<rect id="back_00000139997770523364951060000008248918996332776113_" x="92.98" y="231.1" fill="#094923" width="26.99" height="5.39"/>
	<g id="arms_00000101794477974857678060000012608709704891657347_">
		<rect x="92.98" y="220.87" fill="#0D5E30" width="4.77" height="10.23"/>
		<rect x="115.2" y="220.87" fill="#0D5E30" width="4.77" height="10.23"/>
	</g>
</g>
<g id="_x3C_sitGroup12_x3E_">
	<path id="sit_00000090290325614834715300000000173351821957177477_" fill="#10813F" d="M88.46,231.1H61.47v-13.82
		c2.37-1.2,7.23-3.27,13.69-3.23c6.24,0.04,10.94,2.03,13.3,3.23C88.46,223.53,88.46,224.84,88.46,231.1z"/>
	
		<rect id="back_00000039855517818008947200000011898458601514412688_" x="61.47" y="231.1" fill="#094923" width="26.99" height="5.39"/>
	<g id="arms_00000182491259044285884900000014709381683022402709_">
		<rect x="61.47" y="220.87" fill="#0D5E30" width="4.77" height="10.23"/>
		<rect x="83.69" y="220.87" fill="#0D5E30" width="4.77" height="10.23"/>
	</g>
</g>
<g id="_x3C_sitGroup11_x3E_">
	<path id="sit_00000123409648350772496090000016232476994454428095_" fill="#10813F" d="M435.01,196.43h-26.99v-13.82
		c2.37-1.2,7.23-3.27,13.69-3.23c6.24,0.04,10.94,2.03,13.3,3.23C435.01,188.86,435.01,190.17,435.01,196.43z"/>
	
		<rect id="back_00000088108674644998961990000004478150544713163156_" x="408.02" y="196.43" fill="#094923" width="26.99" height="5.39"/>
	<g id="arms_00000039131886874686988340000008505583245544523938_">
		<rect x="408.02" y="186.2" fill="#0D5E30" width="4.77" height="10.23"/>
		<rect x="430.24" y="186.2" fill="#0D5E30" width="4.77" height="10.23"/>
	</g>
</g>
<g id="_x3C_sitGroup10_x3E_">
	<path id="sit_00000050645712618733566490000008590605065339594889_" fill="#10813F" d="M403.5,196.43h-26.99v-13.82
		c2.37-1.2,7.23-3.27,13.69-3.23c6.24,0.04,10.94,2.03,13.3,3.23C403.5,188.86,403.5,190.17,403.5,196.43z"/>
	
		<rect id="back_00000033352554333806896530000005451870820597153694_" x="376.52" y="196.43" fill="#094923" width="26.99" height="5.39"/>
	<g id="arms_00000152942780469186713870000013499983171491875726_">
		<rect x="376.52" y="186.2" fill="#0D5E30" width="4.77" height="10.23"/>
		<rect x="398.74" y="186.2" fill="#0D5E30" width="4.77" height="10.23"/>
	</g>
</g>
<g id="_x3C_sitGroup9_x3E_">
	<path id="sit_00000030456391265771010110000006466702800363187896_" fill="#10813F" d="M372,196.43h-26.99v-13.82
		c2.37-1.2,7.23-3.27,13.69-3.23c6.24,0.04,10.94,2.03,13.3,3.23C372,188.86,372,190.17,372,196.43z"/>
	
		<rect id="back_00000023268227621858185730000001205262727677452689_" x="345.01" y="196.43" fill="#094923" width="26.99" height="5.39"/>
	<g id="arms_00000112612572509581440970000017031595912547501451_">
		<rect x="345.01" y="186.2" fill="#0D5E30" width="4.77" height="10.23"/>
		<rect x="367.23" y="186.2" fill="#0D5E30" width="4.77" height="10.23"/>
	</g>
</g>
<g id="_x3C_sitGroup8_x3E_">
	<path id="sit_00000069362477610846374560000010284285889103282838_" fill="#10813F" d="M340.5,196.43h-26.99v-13.82
		c2.37-1.2,7.23-3.27,13.69-3.23c6.24,0.04,10.94,2.03,13.3,3.23C340.5,188.86,340.5,190.17,340.5,196.43z"/>
	
		<rect id="back_00000073003346842582534520000016903252774901738171_" x="313.51" y="196.43" fill="#094923" width="26.99" height="5.39"/>
	<g id="arms_00000059307695224257618460000015929626382303624326_">
		<rect x="313.51" y="186.2" fill="#0D5E30" width="4.77" height="10.23"/>
		<rect x="335.73" y="186.2" fill="#0D5E30" width="4.77" height="10.23"/>
	</g>
</g>
<g id="_x3C_sitGroup7_x3E_">
	<path id="sit_00000085962813611828919880000003302897979218768055_" fill="#10813F" d="M308.99,196.43H282v-13.82
		c2.37-1.2,7.23-3.27,13.69-3.23c6.24,0.04,10.94,2.03,13.3,3.23C308.99,188.86,308.99,190.17,308.99,196.43z"/>
	
		<rect id="back_00000039128834270773404200000001905594313954461573_" x="282" y="196.43" fill="#094923" width="26.99" height="5.39"/>
	<g id="arms_00000054954056486092298130000006491678078912180655_">
		<rect x="282" y="186.2" fill="#0D5E30" width="4.77" height="10.23"/>
		<rect x="304.22" y="186.2" fill="#0D5E30" width="4.77" height="10.23"/>
	</g>
</g>
<g id="_x3C_sitGroup6_x3E_">
	<path id="sit_00000075128987777695962670000004496193609963533202_" fill="#10813F" d="M277.49,196.43H250.5v-13.82
		c2.37-1.2,7.23-3.27,13.69-3.23c6.24,0.04,10.94,2.03,13.3,3.23C277.49,188.86,277.49,190.17,277.49,196.43z"/>
	
		<rect id="back_00000091013894439642337560000002081783436772190084_" x="250.5" y="196.43" fill="#094923" width="26.99" height="5.39"/>
	<g id="arms_00000141442186121330253580000014297986310313515151_">
		<rect x="250.5" y="186.2" fill="#0D5E30" width="4.77" height="10.23"/>
		<rect x="272.72" y="186.2" fill="#0D5E30" width="4.77" height="10.23"/>
	</g>
</g>
<g id="_x3C_sitGroup5_x3E_">
	<path id="sit_00000090289291110969676790000015272887388319376015_" fill="#10813F" d="M245.98,196.43H219v-13.82
		c2.37-1.2,7.23-3.27,13.69-3.23c6.24,0.04,10.94,2.03,13.3,3.23C245.98,188.86,245.98,190.17,245.98,196.43z"/>
	
		<rect id="back_00000123439639541711300380000011856552741615899812_" x="219" y="196.43" fill="#094923" width="26.99" height="5.39"/>
	<g id="arms_00000071548782105739671350000010911852856398740665_">
		<rect x="219" y="186.2" fill="#0D5E30" width="4.77" height="10.23"/>
		<rect x="241.22" y="186.2" fill="#0D5E30" width="4.77" height="10.23"/>
	</g>
</g>
<g id="_x3C_sitGroup4_x3E_">
	<path id="sit_00000005980225372579716090000000018610887125561520_" fill="#10813F" d="M214.48,196.43h-26.99v-13.82
		c2.37-1.2,7.23-3.27,13.69-3.23c6.24,0.04,10.94,2.03,13.3,3.23C214.48,188.86,214.48,190.17,214.48,196.43z"/>
	
		<rect id="back_00000155142626625785096810000000662536234852219292_" x="187.49" y="196.43" fill="#094923" width="26.99" height="5.39"/>
	<g id="arms_00000048468602935582155090000008146369481301298056_">
		<rect x="187.49" y="186.2" fill="#0D5E30" width="4.77" height="10.23"/>
		<rect x="209.71" y="186.2" fill="#0D5E30" width="4.77" height="10.23"/>
	</g>
</g>
<g id="_x3C_sitGroup3_x3E_">
	<path id="sit_00000067939181137468422150000005952300564099127191_" fill="#10813F" d="M182.97,196.43h-26.99v-13.82
		c2.37-1.2,7.23-3.27,13.69-3.23c6.24,0.04,10.94,2.03,13.3,3.23C182.97,188.86,182.97,190.17,182.97,196.43z"/>
	
		<rect id="back_00000135673057615585122490000017998090431532447872_" x="155.99" y="196.43" fill="#094923" width="26.99" height="5.39"/>
	<g id="arms_00000176012627691447082240000005204857067453401781_">
		<rect x="155.99" y="186.2" fill="#0D5E30" width="4.77" height="10.23"/>
		<rect x="178.21" y="186.2" fill="#0D5E30" width="4.77" height="10.23"/>
	</g>
</g>
<g id="_x3C_sitGroup2_x3E_">
	<path id="sit_00000115515678936483786540000010545483625086232994_" fill="#10813F" d="M151.47,196.43h-26.99v-13.82
		c2.37-1.2,7.23-3.27,13.69-3.23c6.24,0.04,10.94,2.03,13.3,3.23C151.47,188.86,151.47,190.17,151.47,196.43z"/>
	
		<rect id="back_00000047770604023751917630000013201800704344307848_" x="124.48" y="196.43" fill="#094923" width="26.99" height="5.39"/>
	<g id="arms_00000127037047395356800520000012612800827115308466_">
		<rect x="124.48" y="186.2" fill="#0D5E30" width="4.77" height="10.23"/>
		<rect x="146.7" y="186.2" fill="#0D5E30" width="4.77" height="10.23"/>
	</g>
</g>
<g id="_x3C_sitGroup1_x3E_">
	<path id="sit" fill="#10813F" d="M119.97,196.43H92.98v-13.82c2.37-1.2,7.23-3.27,13.69-3.23c6.24,0.04,10.94,2.03,13.3,3.23
		C119.97,188.86,119.97,190.17,119.97,196.43z"/>
	<rect id="back" x="92.98" y="196.43" fill="#094923" width="26.99" height="5.39"/>
	<g id="arms">
		<rect x="92.98" y="186.2" fill="#0D5E30" width="4.77" height="10.23"/>
		<rect x="115.2" y="186.2" fill="#0D5E30" width="4.77" height="10.23"/>
	</g>
</g>
<g>
	<g>
		<g>
			<path fill="#611427" d="M260.09,67.77h-41.07V39.2c3.61-1.83,11.01-4.98,20.83-4.91c9.5,0.06,16.65,3.09,20.24,4.91
				C260.09,48.72,260.09,58.24,260.09,67.77z"/>
			<rect x="219.01" y="60.23" fill="#310D19" width="41.07" height="8.2"/>
			<rect x="219.01" y="44.66" fill="#500E21" width="7.25" height="15.57"/>
			<rect x="252.83" y="44.66" fill="#500E21" width="7.25" height="15.57"/>
		</g>
		<g>
			<path fill="#242754" d="M408.63,67.94h-41.07V39.36c3.61-1.83,11.01-4.98,20.83-4.91c9.5,0.06,16.65,3.09,20.24,4.91
				C408.63,48.89,408.63,58.41,408.63,67.94z"/>
			<rect x="367.55" y="60.4" fill="#000040" width="41.07" height="8.2"/>
			<rect x="367.55" y="44.83" fill="#1E2043" width="7.25" height="15.57"/>
			<rect x="401.37" y="44.83" fill="#1E2043" width="7.25" height="15.57"/>
		</g>
		<g>
			<path fill="#10813F" d="M111.55,67.6H70.48V39.03c3.61-1.83,11.01-4.98,20.83-4.91c9.5,0.06,16.65,3.09,20.24,4.91
				C111.55,48.55,111.55,58.08,111.55,67.6z"/>
			<rect x="70.48" y="60.07" fill="#094923" width="41.07" height="8.2"/>
			<rect x="70.48" y="44.5" fill="#0D5E30" width="7.25" height="15.57"/>
			<rect x="104.29" y="44.5" fill="#0D5E30" width="7.25" height="15.57"/>
		</g>
	</g>
	<g>
		<text transform="matrix(1 0 0 1 118.2713 58.9966)" fill="#FFFFFF" font-family="'MyriadPro-Regular'" font-size="18.2632px">Ledig</text>
		<text transform="matrix(1 0 0 1 266.8094 58.9966)" fill="#FFFFFF" font-family="'MyriadPro-Regular'" font-size="18.2632px">Optaget</text>
		<text transform="matrix(1 0 0 1 415.3485 58.9966)" fill="#FFFFFF" font-family="'MyriadPro-Regular'" font-size="18.2632px"> Valgt</text>
	</g>
</g>
</svg>
